<mxfile host="app.diagrams.net" agent="Mozilla/5.0 (Windows NT 10.0; Win64; x64) AppleWebKit/537.36 (KHTML, like Gecko) Chrome/128.0.0.0 Safari/537.36" version="24.7.15">
  <diagram name="Page-1" id="zQgdx6gdwZZkz5qt_Ua5">
    <mxGraphModel dx="2072" dy="705" grid="1" gridSize="10" guides="1" tooltips="1" connect="1" arrows="1" fold="1" page="1" pageScale="1" pageWidth="850" pageHeight="1100" math="0" shadow="0">
      <root>
        <mxCell id="0" />
        <mxCell id="1" parent="0" />
        <mxCell id="afm0MhG2RPLh9kl4LAHP-32" style="edgeStyle=orthogonalEdgeStyle;rounded=0;orthogonalLoop=1;jettySize=auto;html=1;exitX=0.5;exitY=0.5;exitDx=0;exitDy=0;exitPerimeter=0;entryX=0;entryY=0.5;entryDx=0;entryDy=0;" edge="1" parent="1" source="afm0MhG2RPLh9kl4LAHP-1" target="afm0MhG2RPLh9kl4LAHP-31">
          <mxGeometry relative="1" as="geometry" />
        </mxCell>
        <mxCell id="afm0MhG2RPLh9kl4LAHP-35" style="edgeStyle=orthogonalEdgeStyle;rounded=0;orthogonalLoop=1;jettySize=auto;html=1;exitX=0.5;exitY=0.5;exitDx=0;exitDy=0;exitPerimeter=0;entryX=0.5;entryY=0;entryDx=0;entryDy=0;" edge="1" parent="1" source="afm0MhG2RPLh9kl4LAHP-1" target="afm0MhG2RPLh9kl4LAHP-9">
          <mxGeometry relative="1" as="geometry" />
        </mxCell>
        <mxCell id="afm0MhG2RPLh9kl4LAHP-1" value="General Practitioner" style="shape=umlActor;verticalLabelPosition=bottom;verticalAlign=top;html=1;outlineConnect=0;" vertex="1" parent="1">
          <mxGeometry x="-340" y="560" width="30" height="60" as="geometry" />
        </mxCell>
        <mxCell id="afm0MhG2RPLh9kl4LAHP-39" style="edgeStyle=orthogonalEdgeStyle;rounded=0;orthogonalLoop=1;jettySize=auto;html=1;exitX=0.5;exitY=0.5;exitDx=0;exitDy=0;exitPerimeter=0;entryX=0;entryY=0.5;entryDx=0;entryDy=0;" edge="1" parent="1" source="afm0MhG2RPLh9kl4LAHP-2" target="afm0MhG2RPLh9kl4LAHP-38">
          <mxGeometry relative="1" as="geometry" />
        </mxCell>
        <mxCell id="afm0MhG2RPLh9kl4LAHP-2" value="ED Manager" style="shape=umlActor;verticalLabelPosition=bottom;verticalAlign=top;html=1;outlineConnect=0;" vertex="1" parent="1">
          <mxGeometry x="-620" y="560" width="30" height="60" as="geometry" />
        </mxCell>
        <mxCell id="afm0MhG2RPLh9kl4LAHP-5" value="Patient" style="shape=umlActor;verticalLabelPosition=bottom;verticalAlign=top;html=1;outlineConnect=0;" vertex="1" parent="1">
          <mxGeometry x="390" y="710" width="30" height="60" as="geometry" />
        </mxCell>
        <mxCell id="afm0MhG2RPLh9kl4LAHP-6" value="Approves patient appointments being set up from Mister Ed" style="ellipse;whiteSpace=wrap;html=1;" vertex="1" parent="1">
          <mxGeometry x="290" y="60" width="130" height="80" as="geometry" />
        </mxCell>
        <mxCell id="afm0MhG2RPLh9kl4LAHP-15" style="edgeStyle=orthogonalEdgeStyle;rounded=0;orthogonalLoop=1;jettySize=auto;html=1;exitX=1;exitY=0.5;exitDx=0;exitDy=0;entryX=0;entryY=0.5;entryDx=0;entryDy=0;" edge="1" parent="1" source="afm0MhG2RPLh9kl4LAHP-7" target="afm0MhG2RPLh9kl4LAHP-8">
          <mxGeometry relative="1" as="geometry" />
        </mxCell>
        <mxCell id="afm0MhG2RPLh9kl4LAHP-7" value="Sees Patients" style="ellipse;whiteSpace=wrap;html=1;" vertex="1" parent="1">
          <mxGeometry x="-30" y="550" width="120" height="80" as="geometry" />
        </mxCell>
        <mxCell id="afm0MhG2RPLh9kl4LAHP-17" style="edgeStyle=orthogonalEdgeStyle;rounded=0;orthogonalLoop=1;jettySize=auto;html=1;exitX=1;exitY=0.5;exitDx=0;exitDy=0;entryX=0;entryY=0.5;entryDx=0;entryDy=0;" edge="1" parent="1" source="afm0MhG2RPLh9kl4LAHP-8" target="afm0MhG2RPLh9kl4LAHP-10">
          <mxGeometry relative="1" as="geometry" />
        </mxCell>
        <mxCell id="afm0MhG2RPLh9kl4LAHP-8" value="Diagnose Patients" style="ellipse;whiteSpace=wrap;html=1;" vertex="1" parent="1">
          <mxGeometry x="140" y="550" width="120" height="80" as="geometry" />
        </mxCell>
        <mxCell id="afm0MhG2RPLh9kl4LAHP-19" style="edgeStyle=orthogonalEdgeStyle;rounded=0;orthogonalLoop=1;jettySize=auto;html=1;exitX=1;exitY=0.5;exitDx=0;exitDy=0;" edge="1" parent="1" source="afm0MhG2RPLh9kl4LAHP-9" target="afm0MhG2RPLh9kl4LAHP-5">
          <mxGeometry relative="1" as="geometry" />
        </mxCell>
        <mxCell id="afm0MhG2RPLh9kl4LAHP-9" value="Can override the appointments and send the patient directly to ER" style="ellipse;whiteSpace=wrap;html=1;" vertex="1" parent="1">
          <mxGeometry x="-390" y="695" width="130" height="90" as="geometry" />
        </mxCell>
        <mxCell id="afm0MhG2RPLh9kl4LAHP-30" value="" style="edgeStyle=orthogonalEdgeStyle;rounded=0;orthogonalLoop=1;jettySize=auto;html=1;" edge="1" parent="1" source="afm0MhG2RPLh9kl4LAHP-10" target="afm0MhG2RPLh9kl4LAHP-5">
          <mxGeometry relative="1" as="geometry" />
        </mxCell>
        <mxCell id="afm0MhG2RPLh9kl4LAHP-37" style="edgeStyle=orthogonalEdgeStyle;rounded=0;orthogonalLoop=1;jettySize=auto;html=1;exitX=1;exitY=0.5;exitDx=0;exitDy=0;entryX=0;entryY=0.5;entryDx=0;entryDy=0;" edge="1" parent="1" source="afm0MhG2RPLh9kl4LAHP-10" target="afm0MhG2RPLh9kl4LAHP-27">
          <mxGeometry relative="1" as="geometry" />
        </mxCell>
        <mxCell id="afm0MhG2RPLh9kl4LAHP-10" value="&lt;span id=&quot;docs-internal-guid-ddf31c6b-7fff-ff05-e964-fe39d42f7074&quot;&gt;&lt;span style=&quot;font-size: 11pt; font-family: Arial, sans-serif; background-color: transparent; font-variant-numeric: normal; font-variant-east-asian: normal; font-variant-alternates: normal; font-variant-position: normal; vertical-align: baseline; white-space-collapse: preserve;&quot;&gt;Can write out prescription for patient and sends prescription information to Mister Ed&lt;/span&gt;&lt;/span&gt;" style="ellipse;whiteSpace=wrap;html=1;" vertex="1" parent="1">
          <mxGeometry x="300" y="525" width="210" height="130" as="geometry" />
        </mxCell>
        <mxCell id="afm0MhG2RPLh9kl4LAHP-23" value="Pharmacy" style="shape=umlActor;verticalLabelPosition=bottom;verticalAlign=top;html=1;outlineConnect=0;" vertex="1" parent="1">
          <mxGeometry x="800" y="560" width="30" height="60" as="geometry" />
        </mxCell>
        <mxCell id="afm0MhG2RPLh9kl4LAHP-27" value="Relays Prescription information to the pharmacy" style="ellipse;whiteSpace=wrap;html=1;" vertex="1" parent="1">
          <mxGeometry x="620" y="550" width="120" height="80" as="geometry" />
        </mxCell>
        <mxCell id="afm0MhG2RPLh9kl4LAHP-29" style="edgeStyle=orthogonalEdgeStyle;rounded=0;orthogonalLoop=1;jettySize=auto;html=1;exitX=1;exitY=0.5;exitDx=0;exitDy=0;entryX=0.5;entryY=0.5;entryDx=0;entryDy=0;entryPerimeter=0;" edge="1" parent="1" source="afm0MhG2RPLh9kl4LAHP-27" target="afm0MhG2RPLh9kl4LAHP-23">
          <mxGeometry relative="1" as="geometry" />
        </mxCell>
        <mxCell id="afm0MhG2RPLh9kl4LAHP-33" style="edgeStyle=orthogonalEdgeStyle;rounded=0;orthogonalLoop=1;jettySize=auto;html=1;exitX=1;exitY=0.5;exitDx=0;exitDy=0;entryX=0;entryY=0.5;entryDx=0;entryDy=0;" edge="1" parent="1" source="afm0MhG2RPLh9kl4LAHP-31" target="afm0MhG2RPLh9kl4LAHP-7">
          <mxGeometry relative="1" as="geometry" />
        </mxCell>
        <mxCell id="afm0MhG2RPLh9kl4LAHP-31" value="&lt;div&gt;&lt;br&gt;&lt;/div&gt;&lt;div&gt;Approves patient appointments being set up from Mister Ed&lt;/div&gt;" style="ellipse;whiteSpace=wrap;html=1;" vertex="1" parent="1">
          <mxGeometry x="-240" y="545" width="140" height="90" as="geometry" />
        </mxCell>
        <mxCell id="afm0MhG2RPLh9kl4LAHP-40" value="" style="edgeStyle=orthogonalEdgeStyle;rounded=0;orthogonalLoop=1;jettySize=auto;html=1;" edge="1" parent="1" source="afm0MhG2RPLh9kl4LAHP-38" target="afm0MhG2RPLh9kl4LAHP-1">
          <mxGeometry relative="1" as="geometry" />
        </mxCell>
        <mxCell id="afm0MhG2RPLh9kl4LAHP-38" value="Sets up patient appointments for General Practitioner" style="ellipse;whiteSpace=wrap;html=1;" vertex="1" parent="1">
          <mxGeometry x="-520" y="550" width="120" height="80" as="geometry" />
        </mxCell>
      </root>
    </mxGraphModel>
  </diagram>
</mxfile>
